<?xml version="1.0" standalone="no"?>
<!DOCTYPE svg PUBLIC "-//W3C//DTD SVG 20010904//EN"
 "http://www.w3.org/TR/2001/REC-SVG-20010904/DTD/svg10.dtd">
<svg version="1.0" xmlns="http://www.w3.org/2000/svg"
 width="148.000000pt" height="148.000000pt" viewBox="0 0 148.000000 148.000000"
 preserveAspectRatio="xMidYMid meet">

<g transform="translate(0.000000,148.000000) scale(0.100000,-0.100000)"
fill="#000000" stroke="none">
<path d="M540 1461 c-336 -7 -349 -10 -433 -94 -64 -63 -84 -126 -87 -262 -4
-187 1 -691 7 -677 2 6 9 10 14 6 5 -3 9 4 9 15 0 26 17 28 23 3 3 -10 5 -6 6
11 1 19 6 27 20 27 10 0 24 7 31 15 7 9 19 14 27 11 8 -3 13 2 13 14 0 34 20
22 22 -12 1 -18 5 91 8 242 5 254 7 279 28 332 29 72 88 131 160 160 55 22 67
23 357 23 292 0 301 -1 350 -23 67 -31 122 -85 153 -152 26 -54 26 -58 30
-332 4 -308 -3 -363 -57 -442 -51 -74 -121 -110 -243 -125 -63 -8 -63 -8 -32
-20 22 -8 34 -21 37 -39 3 -15 10 -46 15 -69 8 -38 7 -42 -12 -47 -12 -2 40
-4 114 -3 121 2 140 5 182 26 80 41 135 103 164 183 12 35 15 119 15 508 1
459 1 466 -21 524 -30 78 -97 146 -171 174 -68 25 -286 32 -729 23z"/>
<path d="M490 1171 c-149 -21 -180 -75 -188 -322 -4 -152 4 -322 15 -291 3 8
30 12 84 12 52 0 79 4 79 11 0 7 9 0 21 -15 11 -14 18 -29 15 -34 -2 -4 4 -8
14 -8 17 0 17 3 -6 33 -47 62 -66 122 -61 194 10 147 111 253 255 266 248 23
398 -281 229 -464 -53 -58 -115 -86 -202 -91 -49 -3 -64 -7 -50 -13 11 -4 40
-6 65 -3 27 2 38 1 27 -4 -17 -7 -17 -10 8 -27 51 -38 84 -74 72 -79 -7 -2 -1
-5 13 -5 20 -1 22 -3 10 -11 -22 -14 117 -11 158 3 43 16 89 61 108 106 20 46
30 395 16 529 -12 114 -39 163 -110 195 -43 20 -66 21 -282 23 -129 1 -260 -1
-290 -5z m584 -97 c21 -20 20 -73 -1 -96 -9 -10 -29 -18 -45 -18 -57 0 -89 70
-51 112 20 22 76 24 97 2z m-224 -624 c-8 -5 -19 -10 -25 -10 -5 0 -3 5 5 10
8 5 20 10 25 10 6 0 3 -5 -5 -10z"/>
<path d="M687 905 c-75 -26 -118 -86 -119 -164 0 -102 72 -171 178 -171 110 0
191 107 163 214 -13 49 -75 111 -125 125 -48 13 -50 13 -97 -4z"/>
<path d="M480 556 c0 -8 5 -18 10 -21 6 -3 10 1 10 9 0 8 -4 18 -10 21 -5 3
-10 -1 -10 -9z"/>
<path d="M587 489 c7 -7 15 -10 18 -7 3 3 -2 9 -12 12 -14 6 -15 5 -6 -5z"/>
<path d="M21 304 c0 -11 3 -14 6 -6 3 7 2 16 -1 19 -3 4 -6 -2 -5 -13z"/>
</g>
</svg>
