<?xml version="1.0" encoding="UTF-8"?>
<svg version="1.1" xmlns="http://www.w3.org/2000/svg" width="600" height="600">
<path d="M0 0 C1.4898472 0.03272192 1.4898472 0.03272192 3.00979233 0.06610489 C22.30673477 0.4929644 41.60208071 0.98050414 60.89453125 1.578125 C62.72420944 1.63328529 62.72420944 1.63328529 64.59085083 1.68955994 C96.32255365 2.72226511 132.77042625 5.80121899 157.375 28.0625 C158.13296875 28.72765625 158.8909375 29.3928125 159.671875 30.078125 C186.59489232 55.14438251 190.26708262 96.00911671 193.25537109 130.49121094 C193.50112479 133.3254721 193.75569314 136.15883744 194.01171875 138.9921875 C194.17759184 140.85412144 194.34297343 142.71609924 194.5078125 144.578125 C194.58073517 145.39524963 194.65365784 146.21237427 194.72879028 147.05426025 C195.91480497 160.80170413 196.54802126 174.46899284 196.61328125 188.26171875 C196.61810453 189.05577181 196.62292782 189.84982487 196.62789726 190.66794014 C196.6639235 196.69528756 196.67981391 202.72255566 196.6875 208.75 C196.68894516 209.63669876 196.69039032 210.52339752 196.69187927 211.43696594 C196.73273306 242.47514625 195.7348054 273.17912056 192.375 304.0625 C192.29294312 304.83243286 192.21088623 305.60236572 192.12634277 306.39562988 C188.75404989 337.78282417 182.19629879 368.85374282 159.375 392.0625 C158.68792969 392.76246094 158.00085938 393.46242188 157.29296875 394.18359375 C141.81885141 408.91127871 121.7770672 413.48105488 101.375 417.0625 C100.17101562 417.2790625 98.96703125 417.495625 97.7265625 417.71875 C90.66448777 418.85941765 83.57218991 419.42965935 76.4375 419.875 C75.54877197 419.94033936 74.66004395 420.00567871 73.74438477 420.07299805 C68.07731467 420.36692544 64.36921948 419.82127324 59.375 417.0625 C55.23491968 412.70452071 53.99782622 409.16635648 54.09765625 403.12109375 C54.71555044 398.53475237 57.4709323 395.82530712 60.875 392.953125 C65.53995124 390.4332183 69.52370239 390.31787239 74.75 390.0625 C97.68655883 388.4918825 122.593329 386.13168817 140.375 370.0625 C165.30758005 340.22651254 164.13797764 292.8849853 166.375 256.0625 C166.43284668 255.18319824 166.49069336 254.30389648 166.55029297 253.39794922 C174.56859814 147.46320018 174.56859814 147.46320018 140.375 52.0625 C115.81584847 31.04591652 79.24198259 31.71151385 48.6875 30.9375 C46.1842148 30.86429977 43.68095914 30.79008218 41.17773438 30.71484375 C33.41701382 30.4885021 25.65573081 30.30009319 17.89380264 30.12120438 C15.24063384 30.0593684 12.58752666 29.99522861 9.93441772 29.93087769 C-25.49393425 29.08030733 -60.91463314 28.8595647 -96.35209322 28.87427568 C-98.4595303 28.87500765 -100.56696694 28.87525227 -102.67440414 28.8753624 C-146.35135101 28.87883538 -189.98353593 29.13147419 -233.625 31.0625 C-234.9680357 31.12112435 -236.31107367 31.17969671 -237.65411377 31.23822021 C-260.35982813 32.23214989 -283.07240546 33.23815622 -305.73046875 35.04296875 C-306.69798065 35.11733154 -307.66549255 35.19169434 -308.662323 35.26831055 C-321.28915991 36.32553276 -333.54305672 38.73164443 -343.734375 46.71484375 C-345.625 48.0625 -345.625 48.0625 -347.625 48.0625 C-347.851875 48.59875 -348.07875 49.135 -348.3125 49.6875 C-349.625 52.0625 -349.625 52.0625 -351.875 54.5625 C-362.74667555 67.42250559 -365.01054243 85.4304091 -367.1875 101.5625 C-367.29172272 102.31639008 -367.39594543 103.07028015 -367.50332642 103.84701538 C-377.74806731 178.06048138 -377.25906562 253.47066068 -366.1875 327.5625 C-366.00662842 328.81272949 -365.82575684 330.06295898 -365.6394043 331.35107422 C-362.84371415 349.00192065 -357.27554508 365.83102116 -342.3125 376.75 C-325.19301564 387.72402844 -304.56678625 387.49354102 -284.9375 388.5625 C-283.80950989 388.62564392 -282.68151978 388.68878784 -281.51934814 388.75384521 C-264.51876647 389.7043584 -247.51362743 390.51115361 -230.5 391.1875 C-229.55041412 391.22593018 -228.60082825 391.26436035 -227.62246704 391.30395508 C-198.43232334 392.46855418 -169.22335925 393.07433621 -140.01171875 393.2734375 C-138.04038434 393.28785312 -136.06905051 393.30234884 -134.09771729 393.31692505 C-126.1142472 393.37465521 -118.13083521 393.4312617 -110.1472168 393.46386719 C-105.15144869 393.48476262 -100.15595834 393.51992057 -95.16034889 393.56462479 C-93.28611284 393.57870914 -91.4118286 393.58748998 -89.53754234 393.59067917 C-86.95400432 393.59557142 -84.37122574 393.61865098 -81.7878418 393.64599609 C-81.0302356 393.64298996 -80.27262939 393.63998383 -79.49206543 393.6368866 C-73.68854547 393.72840458 -70.62800309 395.28205281 -66.375 399.0625 C-63.26329898 402.61872974 -63.28847263 406.26402426 -63.33984375 410.77734375 C-63.89382421 415.21677617 -66.41598857 417.96683339 -69.625 420.875 C-73.61102867 423.24170452 -77.41866135 423.18869846 -81.98681641 423.19189453 C-83.28866379 423.1949913 -84.59051117 423.19808807 -85.93180847 423.20127869 C-87.36339339 423.19946913 -88.79497808 423.19747492 -90.2265625 423.1953125 C-91.71938607 423.19645526 -93.21220942 423.19793217 -94.70503235 423.19972229 C-98.71809828 423.20274126 -102.73112231 423.19848385 -106.74418259 423.19167709 C-109.25866409 423.18748556 -111.77314471 423.18453351 -114.28762817 423.18179321 C-175.63151522 423.10611126 -237.02620029 421.58209897 -298.25 417.5625 C-299.10744812 417.50878235 -299.96489624 417.4550647 -300.84832764 417.39971924 C-325.59898878 415.8187018 -348.54123448 411.07194318 -367.625 394.0625 C-368.39585937 393.38574219 -369.16671875 392.70898438 -369.9609375 392.01171875 C-382.68318118 380.1361773 -388.98968291 364.31586638 -392.63671875 347.640625 C-392.89267067 346.47546104 -392.89267067 346.47546104 -393.15379333 345.28675842 C-394.9075345 337.07726901 -396.10980334 328.8212462 -397.1875 320.5 C-397.34333557 319.32467712 -397.34333557 319.32467712 -397.50231934 318.12561035 C-401.21396277 290.07439571 -403.75273783 261.86928806 -403.828125 233.5625 C-403.83510451 231.92677281 -403.84214547 230.29104589 -403.84924316 228.65531921 C-403.86851671 223.45770937 -403.87341879 218.26014169 -403.875 213.0625 C-403.87558914 212.17791233 -403.87617828 211.29332466 -403.87678528 210.3819313 C-403.88892604 184.56800479 -403.68205172 158.89981142 -400.85931396 133.21148682 C-400.6155322 130.97566703 -400.38399472 128.73882302 -400.15478516 126.50146484 C-395.2472157 78.94935082 -395.2472157 78.94935082 -387.625 58.0625 C-387.18414062 56.83273438 -387.18414062 56.83273438 -386.734375 55.578125 C-378.72380587 35.62452553 -363.10377074 21.11391924 -343.60546875 12.6328125 C-334.63088245 8.95668811 -325.24816217 7.09151219 -315.62890625 6.05078125 C-314.86205505 5.96723389 -314.09520386 5.88368652 -313.30511475 5.79760742 C-302.68736492 4.69632417 -292.03143323 4.14163595 -281.375 3.5625 C-279.66574844 3.46778412 -279.66574844 3.46778412 -277.92196655 3.37115479 C-252.54452987 1.97112618 -227.15738179 0.93461928 -201.75354004 0.15820312 C-199.74593814 0.09678989 -197.73836641 0.03437783 -195.73083496 -0.02929688 C-130.54315794 -2.09410385 -65.19267364 -1.43466136 0 0 Z " fill="#FF0000" transform="translate(403.625,88.9375)"/>
<path d="M0 0 C0.82983398 0.47775879 1.65966797 0.95551758 2.51464844 1.44775391 C7.48626203 4.31270631 12.439122 7.20825488 17.3828125 10.12109375 C24.22016593 14.14276576 31.10637898 18.07606084 38 22 C47.66549339 27.50580913 57.29575397 33.06814823 66.89111328 38.69555664 C72.36140616 41.89757922 77.85128163 45.06105267 83.3671875 48.18359375 C83.99264465 48.53829742 84.61810181 48.8930011 85.26251221 49.25845337 C88.30052911 50.98115407 91.34101703 52.69912593 94.38671875 54.40820312 C116.26668635 66.80005905 116.26668635 66.80005905 120 78 C120.88079722 86.26691106 120.10952064 93.23971116 115 100 C109.61077824 105.61905622 102.90455726 109.07567325 96.125 112.75 C93.86250733 113.99599157 91.6007888 115.24338985 89.33984375 116.4921875 C88.24526855 117.09514648 87.15069336 117.69810547 86.02294922 118.31933594 C82.20568971 120.44161138 78.43879258 122.63877213 74.6875 124.875 C66.76760848 129.58122239 58.77044366 134.14958292 50.76663208 138.71096802 C44.0438172 142.54236485 37.32601831 146.38161659 30.62890625 150.2578125 C30.03572098 150.60099014 29.44253571 150.94416779 28.83137512 151.29774475 C26.00280785 152.93463525 23.17551788 154.57367876 20.34985352 156.21557617 C5.03388094 165.08606168 5.03388094 165.08606168 -3 164 C-7.14092845 162.25160799 -9.66705119 159.83270162 -12 156 C-13.19864974 151.58864281 -13.36328868 148.11123597 -11.9375 143.75 C-7.0505198 136.81364101 0.51919429 133.2109774 7.75 129.125 C8.90937022 128.46407963 10.0683803 127.80252718 11.22705078 127.14038086 C13.62884779 125.76842863 16.03215828 124.39918433 18.43652344 123.03173828 C23.93189314 119.90288032 29.40138579 116.72919961 34.875 113.5625 C44.25871006 108.14542592 53.65620291 102.7527236 63.0625 97.375 C63.65005066 97.03888702 64.23760132 96.70277405 64.84295654 96.35647583 C66.53165814 95.39065796 68.22090006 94.42578503 69.91015625 93.4609375 C71.46694092 92.57100098 71.46694092 92.57100098 73.05517578 91.66308594 C76.47214891 89.73335447 79.92035815 87.86598473 83.38842773 86.02978516 C85.17149068 85.08442806 85.17149068 85.08442806 86 83 C85.29456055 82.73445313 84.58912109 82.46890625 83.86230469 82.1953125 C80.84396343 80.93483836 78.0616324 79.46459997 75.203125 77.875 C74.08881104 77.25633057 72.97449707 76.63766113 71.82641602 76.00024414 C70.63414727 75.33372872 69.44201152 74.66697535 68.25 74 C67.01554377 73.31176732 65.78108739 72.6235349 64.54663086 71.93530273 C57.52307886 68.01195454 50.54142811 64.0261028 43.62817383 59.91113281 C35.87860995 55.30676598 28.03684159 50.86298642 20.19946289 46.41040039 C8.41218047 39.70013128 -3.29132139 32.84624048 -15 26 C-15.00364563 27.30212433 -15.00729126 28.60424866 -15.01104736 29.9458313 C-15.04798921 42.21737729 -15.10575336 54.48867215 -15.18390274 66.76002693 C-15.22341104 73.06886969 -15.25558326 79.37757215 -15.27099609 85.68652344 C-15.28614029 91.77507661 -15.32054683 97.8632442 -15.36830902 103.95162582 C-15.38314577 106.27439904 -15.39104232 108.59722731 -15.39188385 110.92004776 C-15.39424825 114.17384193 -15.42128719 117.42656595 -15.45410156 120.68017578 C-15.4490712 121.64043167 -15.44404083 122.60068756 -15.43885803 123.59004211 C-15.52684055 129.22923399 -16.19835428 132.54803135 -20 137 C-23.96298159 140.42257501 -26.92336718 141.6136431 -32.046875 141.3203125 C-36.20138672 140.63897258 -39.02284902 138.85864487 -42.13952637 136.11994934 C-44.99892454 131.32483841 -44.55723957 126.75246742 -44.51757812 121.26831055 C-44.5245874 120.08074158 -44.53159668 118.89317261 -44.53881836 117.6696167 C-44.55339249 114.41925825 -44.54999568 111.16955293 -44.53730202 107.91920447 C-44.52715157 104.51031642 -44.536574 101.101471 -44.54284668 97.69258118 C-44.55012015 91.96530363 -44.54054657 86.23823251 -44.52148438 80.51098633 C-44.49974713 73.9040313 -44.50674485 67.29757066 -44.52879 60.69062775 C-44.54699005 55.00717895 -44.54947902 49.32387833 -44.53903532 43.64040977 C-44.53282152 40.25089512 -44.5319053 36.86161212 -44.54518127 33.47211266 C-44.55536557 29.6876957 -44.53981568 25.90422011 -44.51757812 22.11987305 C-44.52567505 21.00634964 -44.53377197 19.89282623 -44.54211426 18.74555969 C-44.45858198 11.05305697 -43.21810113 5.73925111 -38.0703125 -0.2421875 C-25.33117991 -10.93487309 -13.37412844 -7.80008693 0 0 Z " fill="#FF0000" transform="translate(274,216)"/>
<path d="M0 0 C4.08269561 3.12717111 6.009915 5.9505665 7 11 C7.15108187 15.43469711 6.49403658 18.82593061 3.75 22.375 C-0.01222732 25.96621699 -2.30157299 26.84559754 -7.4375 27.3125 C-12.6782569 26.85278448 -15.74131762 25.36073771 -19.3125 21.5 C-22.14112473 17.30944484 -22.41496987 13.97963845 -22 9 C-20.59286698 5.26803851 -18.72579468 2.54434601 -15.5 0.125 C-9.89899551 -2.39545202 -5.75181015 -2.07476009 0 0 Z " fill="#FF0000" transform="translate(377,485)"/>
</svg>
